# xmcd CD database file
# Copyright (C) 1997 Ti Kan
# 
# Track frame offsets:
#     150
#     23390
#     37950
#     50645
#     69710
#     93507
#     109060
#     126057
#     145497
#     164495
#     177612
#     203697
# 
# Disc length: 2909 seconds
# 
# Revision: 1
# Processed by: cddbd v1.4b41PL1 Copyright (c) Steve Scherf et al.
# Submitted via: DiscPlay 4.0.4
# 
DISCID=a90b5b0c
DTITLE=Sings The Blues - Miss Peggy Lee
DYEAR=1900
DGENRE=
TTITLE0=See See Rider
TTITLE1=Basin Street Blues
TTITLE2=Squeeze Mee
TTITLE3=You Don't Know
TTITLE4=Fine And Mellow
TTITLE5=Baby Please Come Home
TTITLE6=Kansas City
TTITLE7=Birmingham Jail
TTITLE8=Love Me
TTITLE9=Beale Street
TTITLE10=Tain't Nobody's Bizness
TTITLE11=God Bless the Child
EXTD=
EXTT0=
EXTT1=
EXTT2=
EXTT3=
EXTT4=
EXTT5=
EXTT6=
EXTT7=
EXTT8=
EXTT9=
EXTT10=
EXTT11=
PLAYORDER=
